{"title":"ZAC EFFRON-17 AGAIN-A TFKC H.264 RIP BY KIDZCORNER","uid":5053551,"size":945519351,"categoryP":"video","categoryS":"movies","magnet":"?xt=urn:btih:3d8be6f11233f7242b8dfe26137f07bff97d6303&amp;dn=ZAC+EFFRON-17+AGAIN-A+TFKC+H.264+RIP+BY+KIDZCORNER&amp;tr=udp%3A%2F%2Ftracker.openbittorrent.com%3A80&amp;tr=udp%3A%2F%2Fopen.demonii.com%3A1337&amp;tr=udp%3A%2F%2Ftracker.coppersurfer.tk%3A6969&amp;tr=udp%3A%2F%2Fexodus.desync.com%3A6969","seeders":0,"leechers":1,"uploader":"alanwatson","files":8,"time":1250285705,"description":"What would you do if you got a second shot at life?\n\nClass of 1989, Mike O'Donnell(Zac Efron) is a star on the high school basketball court with a college scout in the stands and a bright future in his grasp. But instead, he decides to throw it all away to share his life with his girlfriend Scarlet and the baby he just learned they are expecting.\n\n\nAlmost 20 years later, Mike's (Matthew Perry) glory days are decidedly behind him. His marriage to Scarlet (Leslie Mann) has fallen apart, he has been passed over fpr a promotion at work, his teenage kids think he is a loser, and he has been reduced to crashing with his high school nerd-turned-techno-billionaire best friend Ned (Thomas Lennon).\n\nBut Mike is given another chance when he is miraculously transformed back to the age of 17. Unfortunately, Mike may look 17 again, but his thirtysomething outlook is totally uncool among the class of 2009.\n\nAnd in trying to recapture his best years, Mike could lose the best things that ever happened to him.\n\nFormat : MPEG-4\nFormat profile : Base Media / Version 2\nCodec ID : mp42\nFile size : 899 MiB\nDuration : 1h 37mn\nOverall bit rate : 1 287 Kbps\nEncoded date : UTC 2009-08-14 10:27:38\nTagged date : UTC 2009-08-14 14:37:17\nWriting application : HandBrake 0.9.3 2008112300\n\nVideo\nID : 1\nFormat : AVC\nFormat/Info : Advanced Video Codec\nFormat profile : &lt;a class=&quot;__cf_email__&quot; href=&quot;/cdn-cgi/l/email-protection&quot; data-cfemail=&quot;602d01090e202c544e50&quot;&gt;[email&amp;#160;protected]&lt;/a&gt;&lt;script cf-hash='f9e31' type=&quot;text/javascript&quot;&gt;\n/* &lt;![CDATA[ */!function(){try{var t=&quot;currentScript&quot;in document?document.currentScript:function(){for(var t=document.getElementsByTagName(&quot;script&quot;),e=t.length;e--;)if(t[e].getAttribute(&quot;cf-hash&quot;))return t[e]}();if(t&amp;&amp;t.previousSibling){var e,r,n,i,c=t.previousSibling,a=c.getAttribute(&quot;data-cfemail&quot;);if(a){for(e=&quot;&quot;,r=parseInt(a.substr(0,2),16),n=2;a.length-n;n+=2)i=parseInt(a.substr(n,2),16)^r,e+=String.fromCharCode(i);e=document.createTextNode(e),c.parentNode.replaceChild(e,c)}}}catch(u){}}();/* ]]&gt; */&lt;/script&gt;\nFormat settings, CABAC : Yes\nFormat settings, ReFrames : 3 frames\nCodec ID : avc1\nCodec ID/Info : Advanced Video Coding\nDuration : 1h 37mn\nBit rate mode : Variable\nBit rate : 1 123 Kbps\nWidth : 720 pixels\nHeight : 428 pixels\nDisplay aspect ratio : 2.35\nFrame rate mode : Variable\nFrame rate : 25.000 fps\nMinimum frame rate : 12.500 fps\nMaximum frame rate : 25.000 fps\nResolution : 24 bits\nColorimetry : 4:2:0\nScan type : Progressive\nBits/(Pixel*Frame) : 0.146\nStream size : 785 MiB (87%)\nWriting library : x264 core 65\n\nAudio\nID : 2\nFormat : AAC\nFormat/Info : Advanced Audio Codec\nFormat version : Version 4\nFormat profile : LC\nFormat settings, SBR : No\nCodec ID : 40\nDuration : 1h 37mn\nBit rate mode : Variable\nBit rate : 160 Kbps\nMaximum bit rate : 197 Kbps\nChannel(s) : 2 channels\nChannel positions : L R\nSampling rate : 48.0 KHz\nResolution : 16 bits\nStream size : 112 MiB (12%)\nLanguage : English\nEncoded date : UTC 2009-08-14 10:27:39\nTagged date : UTC 2009-08-14 14:37:14","torrent":{"xt":"urn:btih:3d8be6f11233f7242b8dfe26137f07bff97d6303","amp;dn":"ZAC+EFFRON-17+AGAIN-A+TFKC+H.264+RIP+BY+KIDZCORNER","amp;tr":["udp%3A%2F%2Ftracker.openbittorrent.com%3A80","udp%3A%2F%2Fopen.demonii.com%3A1337","udp%3A%2F%2Ftracker.coppersurfer.tk%3A6969","udp%3A%2F%2Fexodus.desync.com%3A6969"],"infoHash":"3d8be6f11233f7242b8dfe26137f07bff97d6303","infoHashBuffer":{"type":"Buffer","data":[61,139,230,241,18,51,247,36,43,141,254,38,19,127,7,191,249,125,99,3]},"announce":[],"urlList":[]}}